<svg width="238" height="58" viewBox="0 0 238 58" fill="none" xmlns="http://www.w3.org/2000/svg">
<path d="M55.1 1.88925V22.1692H3.02V1.88925H55.1ZM38.3 8.96925H19.22V10.4692H38.3V8.96925ZM19.22 16.2892H38.3V14.7292H19.22V16.2892ZM1.22 23.6092H57.08V33.2692H29.18V57.4492H15.92V55.6492L10.94 56.7292H0.8V47.7292H2.84V34.5892H1.22V23.6092ZM17.36 35.0092V33.2692H14.6V35.0092H17.36ZM56.24 47.1892L54.14 49.1092L57.02 51.3892V57.1492H45.74L43.34 55.2892L41.12 57.1492H30.38V51.8692L32.54 50.2492L30.38 48.4492V44.0692H41.42L42.98 45.2692L44.66 43.9492V42.9892H30.38V34.3492H56.24V47.1892ZM14.6 39.5692V41.3092H17.36V39.5692H14.6ZM14.6 45.9892V47.7292H17.36V45.9892H14.6ZM81.86 1.10924V2.84925H89.96V14.2492H88.46L87.8 18.4492H89.78V28.7692H82.58V30.2092H89.84V40.6492H85.82L89.96 43.9492V55.8292H84.62L81.5 51.2092V57.2092H69.5V51.3892L66.5 55.8292H61.16V43.9492L65.3 40.6492H61.22V30.2092H68.18V28.7692H61.82V18.4492H63.8L63.14 14.2492H61.46V2.84925H68.6V1.10924H81.86ZM117.62 17.4892V30.8692H116.06V56.9092H105.02V30.8692H103.34V51.2692L98.36 57.1492H91.52V2.18924H116.3V10.0492L110.96 15.5092H103.34V17.4892H117.62ZM76.4 18.4492L77 14.2492H74.54L75.2 18.4492H76.4ZM165.08 18.5692H176.54V57.2692H158.06V52.8892L161.18 50.6692V50.0092H154.28V56.9692H139.28V18.5692H150.86V1.34925H165.08V18.5692ZM121.4 17.4892V2.12925H137.72V17.4892H121.4ZM149.42 17.1892H142.34L139.28 14.3692V2.54924H149.42V17.1892ZM176.48 14.3692L173.54 17.1892H166.52V2.54924H176.48V14.3692ZM121.4 34.7692V19.0492H137.72V34.7692H121.4ZM161.18 30.8092H154.28V32.7292H161.18V30.8092ZM121.28 42.2692L124.52 36.3292H137.72V57.1492H121.28V42.2692ZM154.28 42.3292H161.18V40.4092H154.28V42.3292ZM234.8 3.98925V36.3892H183.2V8.72925L192.44 0.989246H210.38V3.98925H234.8ZM217.4 14.0092H200.06V15.6892H217.4V14.0092ZM217.4 20.3092H200.06V21.9892H217.4V20.3092ZM200.06 28.4092H217.4V26.7292H200.06V28.4092ZM208.58 37.7092V45.8692H224.3V57.0892H194.48V37.7092H208.58ZM210.02 44.3692V37.7692H220.46L224.24 40.4692V44.3692H210.02ZM181.16 56.3092V37.8292H193.1V56.3092H181.16ZM225.68 37.8292H237.02V56.3092H225.68V37.8292Z" fill="#222222"/>
</svg>
