<svg width="30" height="376" viewBox="0 0 30 376" fill="none" xmlns="http://www.w3.org/2000/svg">
<path d="M29.615 26.125L20.48 26.125L15.475 22.24L10.47 26.125L0.599999 26.125L0.599999 14.225L9.63 14.225L9.63 11.635L0.599999 11.635L0.6 0.469998L29.615 0.47L29.615 11.635L20.515 11.635L20.515 14.225L29.615 14.225L29.615 26.125ZM9.665 39.6517L9.665 51.5167L0.564998 51.5167L0.564999 28.7667L29.615 28.7667L29.615 51.3767L20.515 51.3767L20.515 39.6517L18.485 39.6517L18.485 51.0967L11.835 51.0967L11.835 39.6517L9.665 39.6517ZM9.665 64.9788L9.665 76.8438L0.564997 76.8438L0.564998 54.0938L29.615 54.0938L29.615 76.7038L20.515 76.7038L20.515 64.9788L18.485 64.9788L18.485 76.4238L11.835 76.4238L11.835 64.9788L9.665 64.9788ZM29.755 101.156L25.45 105.286L10.54 105.286L6.27 101.156L6.27 90.411L0.494996 90.411L0.494996 79.596L29.755 79.596L29.755 101.156ZM15.23 94.086L20.865 94.086L20.865 90.411L15.23 90.411L15.23 94.086ZM29.86 120.304L29.86 132.484L0.494994 132.484L0.494995 120.304L29.86 120.304ZM29.685 158.476L19.57 158.476L19.57 152.491L0.599993 152.491L0.599994 140.906L19.57 140.906L19.57 134.921L29.685 134.921L29.685 158.476ZM29.755 194.706L25.45 198.836L10.54 198.836L6.26999 194.706L6.26999 183.961L0.494992 183.961L0.494992 173.146L29.755 173.146L29.755 194.706ZM15.23 187.636L20.865 187.636L20.865 183.961L15.23 183.961L15.23 187.636ZM29.825 205.817L29.825 223.912L25.135 228.217L5.07999 228.217L0.45999 223.912L0.459991 205.817L5.07999 201.512L25.17 201.512L29.825 205.817ZM9.38499 212.537L9.38499 217.192L20.69 217.192L20.69 212.537L9.38499 212.537ZM0.529989 250.681L0.52999 230.941L9.27999 230.941L9.27999 243.436L11.17 243.436L11.17 234.511L14.25 230.976L25.555 230.976L29.755 235.211L29.755 254.146L21.565 254.146L21.565 241.721L19.675 241.721L19.675 251.381L16.595 254.916L4.72999 254.916L0.529989 250.681ZM0.529988 277.376L0.529989 257.636L9.27999 257.636L9.27999 270.131L11.17 270.131L11.17 261.206L14.25 257.671L25.555 257.671L29.755 261.906L29.755 280.841L21.565 280.841L21.565 268.416L19.675 268.416L19.675 278.076L16.595 281.611L4.72999 281.611L0.529988 277.376ZM29.86 284.435L29.86 296.615L0.494987 296.615L0.494987 284.435L29.86 284.435ZM15.055 322.852L13.41 325.407L4.37999 325.407L0.529986 321.662L0.529987 299.647L29.755 299.647L29.755 321.557L25.66 324.987L16.7 324.987L15.055 322.852ZM21.495 314.487L21.495 309.552L18.24 309.552L18.24 314.487L21.495 314.487ZM8.26499 309.552L8.26499 314.487L11.31 314.487L11.31 309.552L8.26499 309.552ZM29.86 328.185L29.86 339.455L11.275 339.455L11.275 350.445L0.529985 350.445L0.529986 328.185L29.86 328.185ZM9.66498 363.607L9.66498 375.472L0.564984 375.472L0.564984 352.722L29.615 352.722L29.615 375.332L20.515 375.332L20.515 363.607L18.485 363.607L18.485 375.052L11.835 375.052L11.835 363.607L9.66498 363.607Z" fill="#222222"/>
</svg>
