<svg width="46" height="96" viewBox="0 0 46 96" fill="none" xmlns="http://www.w3.org/2000/svg">
<g id="_?&#238;&#161;&#188;&#230;&#131;&#156;_1" clip-path="url(#clip0_1677_71)">
<path id="Vector" d="M44.6465 43.2054L1.35317 43.2054" stroke="#EA7F1B" stroke-width="3" stroke-linecap="round" stroke-linejoin="round"/>
<path id="Vector_2" d="M37.0542 55.9682L8.94535 55.9682" stroke="#EA7F1B" stroke-width="3" stroke-linecap="round" stroke-linejoin="round"/>
<path id="Vector_3" d="M30.3823 68.4858L15.6174 68.4858" stroke="#EA7F1B" stroke-width="3" stroke-linecap="round" stroke-linejoin="round"/>
<path id="Vector_4" d="M20.8686 81.4665C21.5859 80.8944 22.6415 81.4801 22.5738 82.4064C22.3708 85.1714 20.5032 88.9852 18.189 91.941C16.565 94.0113 14.9004 94.8286 13.2764 95.5096C9.55468 97.0761 5.37287 94.8014 4.8992 90.7696C4.47966 87.2554 7.29461 84.1226 10.8133 84.3269C13.9936 84.504 17.7424 83.9728 20.8957 81.4665L20.8686 81.4665Z" fill="#EA7F1B"/>
<path id="Vector_5" d="M25.118 81.4665C24.4007 80.8944 23.3451 81.4801 23.4128 82.4064C23.6158 85.1714 25.4834 88.9852 27.7976 91.941C29.4216 94.0113 31.0862 94.8286 32.7102 95.5096C36.4319 97.0761 40.6137 94.8014 41.0874 90.7696C41.5069 87.2554 38.692 84.1226 35.1733 84.3269C31.9929 84.504 28.2442 83.9728 25.0909 81.4665L25.118 81.4665Z" fill="#EA7F1B"/>
<path id="Vector_6" d="M22.9934 26.3155C32.4668 26.3155 37.8666 29.9796 41.4936 32.8672C42.1973 33.4393 43.2259 32.8536 43.1176 31.941C41.074 13.6617 32.8457 -4.49342e-07 22.9934 -8.8e-07C13.1411 -1.31066e-06 4.92636 13.6345 2.86928 31.8729C2.76102 32.7855 3.81662 33.3712 4.50683 32.7855C8.51271 29.4075 13.29 26.3155 22.9934 26.3155ZM22.9934 15.9364C22.9934 14.3837 24.2385 13.1305 25.7813 13.1305C27.3241 13.1305 28.5692 14.3837 28.5692 15.9364C28.5692 17.4892 27.3241 18.7423 25.7813 18.7423C24.2385 18.7423 22.9934 17.4892 22.9934 15.9364Z" fill="#EA7F1B"/>
<path id="Vector_7" d="M22.9932 76.5357L22.9932 30.4563" stroke="#EA7F1B" stroke-width="3" stroke-linecap="round" stroke-linejoin="round"/>
</g>
<defs>
<clipPath id="clip0_1677_71">
<rect width="96" height="46" fill="white" transform="translate(46) rotate(90)"/>
</clipPath>
</defs>
</svg>
